<?xml version="1.0" encoding="UTF-8" standalone="no"?>
<!-- Created with Inkscape (http://www.inkscape.org/) -->

<svg
   xmlns:dc="http://purl.org/dc/elements/1.1/"
   xmlns:cc="http://creativecommons.org/ns#"
   xmlns:rdf="http://www.w3.org/1999/02/22-rdf-syntax-ns#"
   xmlns:svg="http://www.w3.org/2000/svg"
   xmlns="http://www.w3.org/2000/svg"
   xmlns:sodipodi="http://sodipodi.sourceforge.net/DTD/sodipodi-0.dtd"
   xmlns:inkscape="http://www.inkscape.org/namespaces/inkscape"
   id="svg3351"
   version="1.1"
   inkscape:version="0.91 r13725"
   width="641.25"
   height="178.74872"
   viewBox="0 0 641.25 178.74872"
   sodipodi:docname="logo_mitsubishi.svg"
   inkscape:export-filename="E:\lesson_ovk\lesson_ovk\design\equipment\logo_mitsubishi.png"
   inkscape:export-xdpi="90"
   inkscape:export-ydpi="90">
  <metadata
     id="metadata3357">
    <rdf:RDF>
      <cc:Work
         rdf:about="">
        <dc:format>image/svg+xml</dc:format>
        <dc:type
           rdf:resource="http://purl.org/dc/dcmitype/StillImage" />
        <dc:title></dc:title>
      </cc:Work>
    </rdf:RDF>
  </metadata>
  <defs
     id="defs3355" />
  <sodipodi:namedview
     pagecolor="#ffffff"
     bordercolor="#666666"
     borderopacity="1"
     objecttolerance="10"
     gridtolerance="10"
     guidetolerance="10"
     inkscape:pageopacity="0"
     inkscape:pageshadow="2"
     inkscape:window-width="1080"
     inkscape:window-height="705"
     id="namedview3353"
     showgrid="false"
     fit-margin-top="0"
     fit-margin-left="0"
     fit-margin-right="0"
     fit-margin-bottom="0"
     inkscape:zoom="0.34327273"
     inkscape:cx="252.99788"
     inkscape:cy="34.65042"
     inkscape:window-x="386"
     inkscape:window-y="70"
     inkscape:window-maximized="0"
     inkscape:current-layer="svg3351" />
  <path
     style="fill:#000000"
     d="m 0,177.98959 c 0,-0.41752 7.453125,-13.91312 16.5625,-29.99021 l 16.5625,-29.23108 33.4375,-0.01 C 84.953134,118.7533 100,118.37118 100,117.90974 100,117.06648 79.518844,80.47466 71.692431,67.33521 69.386594,63.46402 67.5,59.86906 67.5,59.34638 67.5,58.82371 72.628567,49.33478 78.896824,38.25989 85.165074,27.185 92.589484,14.04559 95.395524,9.0612201 98.201564,4.0768401 100.80737,-7.0990729e-4 101.1862,9.2707097e-8 101.56504,7.0009271e-4 103.5149,2.9538201 105.51922,6.5625001 107.52355,10.17117 115.01302,23.43017 122.16251,36.02696 l 12.99908,22.90324 -16.0183,28.30522 c -8.81005,15.56787 -16.20016,29.02704 -16.42244,29.90926 -0.32129,1.27514 6.37529,1.60404 32.65944,1.60404 24.95578,0 33.36786,0.38315 34.30438,1.5625 1.51732,1.91072 32.81533,57.16197 32.81533,57.9298 0,0.30134 -15.26085,0.39821 -33.913,0.21529 l -33.913,-0.33259 -11.74709,-20.625 c -6.4609,-11.34375 -13.81842,-24.42188 -16.35005,-29.0625 -2.53162,-4.64063 -4.93666,-8.4375 -5.34453,-8.4375 -0.40787,0 -8.227286,13.21875 -17.376496,29.375 l -16.634922,29.375 -33.610456,0 C 15.124705,178.74872 0,178.40711 0,177.98959 Z m 227.5,-28.61587 0,-29.375 19.22635,0 19.22634,0 -0.18044,4.6875 -0.18045,4.6875 -14.0459,0.35344 -14.0459,0.35343 0,6.20907 0,6.20906 13.125,0 13.125,0 0,5 0,5 -13.18465,0 -13.18464,0 0.37214,7.8125 0.37215,7.8125 14.0625,-0.0279 14.0625,-0.0279 0,5.34036 0,5.34036 -19.375,0 -19.375,0 0,-29.375 z m 48.36619,28.57451 C 275.38979,177.47183 275,164.23831 275,148.54038 l 0,-28.54166 5.625,0 5.625,0 0,23.75 c 0,14.89584 0.46601,23.80825 1.25,23.90625 0.6875,0.086 6.45312,0.22656 12.8125,0.3125 l 11.5625,0.15625 0,5 0,5 -17.57131,0.34535 c -9.66423,0.18994 -17.9611,-0.0445 -18.4375,-0.52084 z M 320,149.37372 l 0,-29.375 18.75,0 18.75,0 0,5 0,5 -13.75,0 -13.75,0 0,6.25 0,6.25 13.125,0 13.125,0 0,5 0,5 -13.125,0 -13.125,0 0,7.5 c 0,4.125 0.5625,7.57031 1.25,7.65625 0.6875,0.086 7.01562,0.22656 14.0625,0.3125 l 12.8125,0.15625 0.38437,5.3125 0.38438,5.3125 -19.44688,0 -19.44687,0 0,-29.375 z m 61.25,28.53891 c -9.40029,-3.86227 -15.1038,-14.30101 -15.14621,-27.72101 -0.0379,-11.98969 2.19262,-18.53821 8.4483,-24.80309 10.79644,-10.81231 28.32094,-8.20552 34.27747,5.09883 2.51327,5.61354 2.19736,6.12207 -4.59622,7.39904 -3.26121,0.61298 -4.11262,0.24655 -5.25558,-2.26198 -3.27581,-7.18962 -12.03092,-8.5647 -17.49557,-2.74786 -5.25195,5.59046 -6.27023,21.34872 -1.93194,29.89761 3.51769,6.9318 11.13264,7.98396 16.7959,2.3207 2.00963,-2.00961 3.65385,-4.54086 3.65385,-5.625 0,-1.08412 0.75981,-1.97115 1.68848,-1.97115 2.53617,0 9.5666,2.62713 9.52631,3.55979 -0.11225,2.59887 -6.20308,12.2533 -9.09041,14.409 -3.44859,2.57475 -16.76305,4.13435 -20.87438,2.44512 z m 50.89283,0.0623 C 431.65177,177.48382 431.25,166.48831 431.25,153.54038 l 0,-23.54166 -7.5,0 -7.5,0 0,-5 0,-5 20.625,0 20.625,0 0,5 0,5 -7.47301,0 -7.473,0 -0.3395,24.0625 -0.33949,24.0625 -4.41967,0.37199 c -2.43083,0.2046 -4.82146,-0.0297 -5.3125,-0.52083 z m 32.5,0 C 464.15177,177.48382 463.75,164.23831 463.75,148.54038 l 0,-28.54166 15.68708,0 c 11.57703,0 16.64777,0.4968 19.35383,1.89616 10.44818,5.40295 9.88438,24.4012 -0.85732,28.88938 l -4.40038,1.83858 3.31086,3.31087 c 3.04601,3.046 10.62078,15.45627 12.59028,20.62751 0.71621,1.88052 0.0521,2.1875 -4.73187,2.1875 -6.43832,0 -7.00619,-0.52474 -14.51987,-13.41683 -5.33714,-9.15756 -7.9663,-11.58317 -12.55517,-11.58317 -2.35129,0 -2.56309,0.89175 -2.89468,12.1875 l -0.35776,12.1875 -4.41967,0.37199 c -2.43083,0.2046 -4.82146,-0.0297 -5.3125,-0.52083 z M 493.5,142.24872 c 0.825,-0.825 1.5,-3.24375 1.5,-5.375 0,-5.70725 -1.95332,-6.875 -11.5,-6.875 l -8.5,0 0,6.875 0,6.875 8.5,0 c 4.94445,0 9.12745,-0.62745 10,-1.5 z m 22.75,7.125 0,-29.375 5,0 5,0 0,29.375 0,29.375 -5,0 -5,0 0,-29.375 z m 31.47454,27.2728 c -8.27357,-4.07705 -13.00457,-13.93544 -12.99915,-27.0874 0.005,-10.73199 2.17523,-17.63976 7.33994,-23.35647 6.82577,-7.55532 16.62102,-9.41394 26.34635,-4.99916 5.28272,2.39808 10.32452,8.64272 10.33365,12.79898 0.005,2.35815 -9.05738,5.64862 -9.76609,3.54591 -1.04009,-3.08592 -5.52953,-7.35401 -8.52665,-8.10624 -10.64624,-2.67203 -17.66339,10.76097 -14.23875,27.25738 1.6536,7.96532 5.56857,12.0492 11.55088,12.0492 4.03352,0 10.98528,-5.87189 10.98528,-9.27885 0,-2.31064 1.92045,-2.47889 7.21749,-0.63233 3.65615,1.27454 3.77595,1.5296 2.49534,5.3125 -3.32424,9.81968 -10.08594,14.61924 -20.52674,14.57022 -3.3336,-0.0156 -7.9288,-0.94884 -10.21155,-2.07374 z m -180.618,-70.45959 c -2.62267,-0.45153 -6.27892,-1.93775 -8.125,-3.30266 -3.79977,-2.80939 -7.58187,-9.62425 -7.6715,-13.82305 -0.0523,-2.45006 0.57343,-2.8125 4.85572,-2.8125 3.65955,0 5.10066,0.58256 5.6393,2.27964 1.56379,4.92705 5.60699,7.72036 11.1749,7.72036 6.49716,0 9.90524,-3.05109 9.30124,-8.32696 -0.3732,-3.25976 -1.25885,-3.8235 -10.90036,-6.93831 -11.55182,-3.73197 -15.60485,-6.72093 -17.69293,-13.04787 -4.1912,-12.69945 7.16258,-23.17984 22.78398,-21.03135 7.32232,1.00708 12.77556,5.15173 14.78355,11.23596 1.82977,5.54427 0.90898,6.85853 -4.80517,6.85853 -3.99783,0 -4.84686,-0.51579 -6.03636,-3.66713 -1.0379,-2.74971 -2.43875,-3.86495 -5.59955,-4.45792 -6.01537,-1.12849 -11.06436,1.06921 -11.06436,4.81605 0,3.91727 1.59547,5.06841 10.6085,7.65407 10.37325,2.97588 14.10927,5.13212 16.9421,9.77812 4.80914,7.88723 1.87516,20.40768 -5.81698,24.82333 -4.2903,2.46284 -11.7836,3.37691 -18.37708,2.24169 z m 176.01846,0.0359 c -6.86416,-0.98078 -11.2844,-4.21477 -14.31361,-10.47231 -3.96337,-8.18719 -3.5395,-9.5018 3.06361,-9.5018 4.2402,0 5.625,0.47559 5.625,1.93181 0,1.0625 1.38069,3.3125 3.06819,5 5.85889,5.8589 18.18181,2.87473 18.18181,-4.403 0,-3.03001 -3.82318,-5.59993 -11.24298,-7.5575 -14.41713,-3.80366 -19.48757,-9.42856 -18.42909,-20.44436 0.76699,-7.98233 5.70738,-12.66899 14.65156,-13.89912 12.609,-1.73419 23.77051,5.14491 23.77051,14.65031 0,3.22073 -0.3639,3.47186 -5.03094,3.47186 -4.22572,0 -5.22246,-0.50375 -6.22758,-3.14741 -2.05889,-5.41532 -10.2083,-7.22713 -15.01179,-3.3375 -4.99627,4.04574 -2.47453,7.11504 8.97978,10.92967 15.85316,5.27959 20.84187,11.75264 18.23588,23.66178 -2.23455,10.21167 -11.62182,15.0749 -25.32035,13.11757 z M 227.5,76.87372 l 0,-29.375 7.87297,0 7.87298,0 4.17934,17.8125 c 2.29865,9.79687 4.54149,18.22631 4.98411,18.73207 0.44261,0.50577 2.75344,-7.50975 5.13517,-17.81226 l 4.33043,-18.73182 8.46054,-2.5e-4 8.46053,-2.4e-4 -0.33553,29.0625 -0.33554,29.0625 -5,0 -5,0 0,-20.8358 c 0,-11.45969 -0.22235,-20.61235 -0.4941,-20.33924 -0.27175,0.27312 -2.57323,9.64923 -5.11438,20.8358 l -4.62028,20.33924 -5.0927,0.37923 c -5.98164,0.44541 -5.0003,2.5224 -10.80997,-22.87923 l -4.28836,-18.75 -0.10262,20.9375 -0.10259,20.9375 -5,0 -5,0 0,-29.375 z m 61.25,0 0,-29.375 5,0 5,0 0,29.375 0,29.375 -5,0 -5,0 0,-29.375 z m 32.08334,28.54166 C 320.375,104.95706 320,93.98831 320,81.04038 l 0,-23.54166 -7.5,0 -7.5,0 0,-5 0,-5 21.25,0 21.25,0 0,5 0,5 -8.125,0 -8.125,0 0,24.375 0,24.375 -4.79166,0 c -2.63543,0 -5.16668,-0.375 -5.625,-0.83334 z m 88.61552,-3.0195 c -2.46161,-2.16131 -4.9472,-5.86564 -5.66152,-8.4375 -0.70038,-2.52156 -1.27654,-14.00654 -1.28037,-25.52216 l -0.007,-20.9375 5.625,0 5.625,0 0,21.6393 c 0,20.0493 0.18727,21.84031 2.5487,24.375 3.38287,3.63109 11.42906,3.75794 14.9513,0.2357 2.30952,-2.30953 2.5,-4.16666 2.5,-24.375 l 0,-21.875 5.77541,0 5.77542,0 -0.51094,23.4375 c -0.43498,19.95277 -0.85424,24.01632 -2.81984,27.33057 -3.64495,6.1458 -7.94246,7.98193 -18.68193,7.98193 -8.77487,0 -9.76512,-0.27569 -13.83926,-3.85284 z M 456.25,76.99636 l 0,-29.49764 15.11964,0 c 17.0525,0 20.94557,1.3267 24.23516,8.25899 2.65626,5.59766 2.36761,9.446 -1.09074,14.54217 l -2.98595,4.40004 3.92345,3.92344 c 3.3147,3.3147 3.92344,4.86005 3.92344,9.96016 0,6.9626 -2.17381,11.7259 -6.7693,14.83305 -2.5696,1.73738 -6.61991,2.27574 -19.7932,2.6309 l -16.5625,0.44654 0,-29.49765 z m 30.89894,15.96412 c 3.97931,-5.44204 0.54397,-11.60707 -6.61323,-11.86801 -2.35713,-0.086 -6.39508,-0.22656 -8.97321,-0.3125 l -4.6875,-0.15625 -0.37696,7.9978 -0.37695,7.9978 9.71339,-0.73463 c 7.21487,-0.54566 10.12522,-1.29783 11.31446,-2.92421 z M 482.5,69.63883 c 1.98642,-0.99991 3.27176,-2.84246 3.52782,-5.05716 0.65624,-5.67599 -1.56475,-7.08295 -11.18087,-7.08295 l -8.59695,0 0,6.04166 c 0,3.32293 0.375,6.41668 0.83334,6.875 1.41991,1.41993 12.1243,0.88073 15.41666,-0.77655 z m 26.25,7.23489 0,-29.375 5,0 5,0 0,29.375 0,29.375 -5,0 -5,0 0,-29.375 z m 69.58334,28.54166 C 577.875,104.95706 577.5,91.73831 577.5,76.04038 l 0,-28.54166 5.625,0 5.625,0 0,11.25 0,11.25 10.625,0 10.625,0 0,-11.25 0,-11.25 5,0 5,0 0,29.375 0,29.375 -4.95628,0 -4.95626,0 -0.35624,-12.8125 -0.35622,-12.8125 -10,0 -10,0 -0.35623,12.8125 -0.35623,12.8125 -4.74794,0 c -2.61136,0 -5.12294,-0.375 -5.58126,-0.83334 z M 631.25,76.87372 l 0,-29.375 5,0 5,0 0,29.375 0,29.375 -5,0 -5,0 0,-29.375 z"
     id="path3361"
     inkscape:connector-curvature="0"
     inkscape:export-xdpi="90"
     inkscape:export-ydpi="90" />
</svg>
