<?xml version="1.0" encoding="UTF-8" standalone="no"?>
<!-- Created with Inkscape (http://www.inkscape.org/) -->

<svg
   xmlns:dc="http://purl.org/dc/elements/1.1/"
   xmlns:cc="http://creativecommons.org/ns#"
   xmlns:rdf="http://www.w3.org/1999/02/22-rdf-syntax-ns#"
   xmlns:svg="http://www.w3.org/2000/svg"
   xmlns="http://www.w3.org/2000/svg"
   xmlns:sodipodi="http://sodipodi.sourceforge.net/DTD/sodipodi-0.dtd"
   xmlns:inkscape="http://www.inkscape.org/namespaces/inkscape"
   id="svg2"
   version="1.1"
   inkscape:version="0.91 r13725"
   width="2842.5288"
   height="694.53503"
   viewBox="0 0 2842.5288 694.53503"
   sodipodi:docname="logo_daikin.svg">
  <metadata
     id="metadata8">
    <rdf:RDF>
      <cc:Work
         rdf:about="">
        <dc:format>image/svg+xml</dc:format>
        <dc:type
           rdf:resource="http://purl.org/dc/dcmitype/StillImage" />
        <dc:title></dc:title>
      </cc:Work>
    </rdf:RDF>
  </metadata>
  <defs
     id="defs6" />
  <sodipodi:namedview
     pagecolor="#ffffff"
     bordercolor="#666666"
     borderopacity="1"
     objecttolerance="10"
     gridtolerance="10"
     guidetolerance="10"
     inkscape:pageopacity="0"
     inkscape:pageshadow="2"
     inkscape:window-width="1136"
     inkscape:window-height="633"
     id="namedview4"
     showgrid="false"
     fit-margin-top="0"
     fit-margin-left="0"
     fit-margin-right="0"
     fit-margin-bottom="0"
     inkscape:zoom="0.099007003"
     inkscape:cx="1412.556"
     inkscape:cy="317.55527"
     inkscape:window-x="594"
     inkscape:window-y="189"
     inkscape:window-maximized="0"
     inkscape:current-layer="svg2" />
  <path
     style="fill:#000000"
     d="m 383.20312,693.9491 -4.45312,-0.28574 0,-35.10489 0,-35.10488 18.70386,0 c 10.28712,0 20.8463,0.45948 23.46486,1.02106 8.58579,1.84131 14.01936,8.84977 14.06069,18.13608 0.0402,9.03343 -5.24539,15.65059 -14.69998,18.40324 l -3.93931,1.1469 2.53306,1.95247 c 1.39319,1.07385 3.07883,2.59518 3.74587,3.38073 1.60437,1.88941 17.06845,25.31113 17.06845,25.85168 0,0.23119 -2.46612,0.42034 -5.48028,0.42034 l -5.48027,0 -5.74988,-9.14063 c -12.57983,-19.99821 -14.81119,-21.79309 -27.09556,-21.79542 l -7.71223,-0.001 -0.25652,15.70312 -0.25651,15.70313 -4.45313,-0.28574 z m 35.56283,-41.37993 c 3.98721,-1.81025 6.85905,-5.72493 6.85905,-9.34971 0,-3.18064 -2.93702,-8.26557 -5.52078,-9.55828 -1.59373,-0.79737 -7.60055,-1.34866 -17.2136,-1.5798 l -14.76562,-0.35503 0,11.33237 0,11.33237 13.35937,-0.0206 c 11.09202,-0.0171 14.02506,-0.32281 17.28158,-1.80133 z m 186.3903,40.8836 c -6.00356,-1.99566 -9.36031,-4.04478 -12.51883,-7.64215 -6.88267,-7.83892 -10.23906,-19.5157 -9.18701,-31.96132 1.17462,-13.89576 7.03197,-23.22336 17.66688,-28.13381 5.14892,-2.37741 7.00543,-2.73004 14.35146,-2.72592 9.87433,0.006 14.91503,1.8478 20.59375,7.52652 3.85149,3.85149 7.72226,11.43307 6.44728,12.62809 -0.43507,0.40779 -2.5494,1.02703 -4.69849,1.37608 -3.76399,0.61135 -3.96351,0.51652 -5.43409,-2.58249 -7.64679,-16.11445 -31.72928,-13.8899 -37.73195,3.4854 -2.01803,5.84138 -2.21444,18.83487 -0.38015,25.14922 5.65247,19.45799 32.76577,21.05161 39.90961,2.34574 l 1.61311,-4.22385 3.90296,0.94669 c 2.14663,0.52068 4.26184,1.26836 4.70046,1.66152 1.31131,1.17539 -3.97139,11.66887 -7.67027,15.23611 -5.7706,5.56521 -10.44593,7.42348 -19.66124,7.81463 -5.17848,0.2198 -9.52176,-0.10875 -11.90348,-0.90046 z m 209.0625,-0.009 c -10.46632,-3.47133 -17.51743,-9.84302 -21.27747,-19.22726 -3.03542,-7.57577 -3.00843,-23.49596 0.053,-31.26442 6.47537,-16.4314 24.48762,-24.27477 42.51054,-18.51106 5.68051,1.81662 7.72617,3.07067 12.07708,7.40361 6.47907,6.45234 9.27668,13.19405 9.98384,24.05927 1.46645,22.53059 -11.1788,37.71895 -32.05444,38.50104 -4.52405,0.16949 -9.04331,-0.21518 -11.29256,-0.96118 z m 17.15907,-8.28449 c 6.50447,-1.63784 13.47604,-8.89928 15.64098,-16.2913 3.04536,-10.39814 0.42085,-24.07633 -5.89718,-30.7346 -4.59019,-4.83736 -9.27282,-6.66755 -17.05912,-6.66755 -8.04112,0 -12.7266,1.92737 -18.07619,7.43567 -3.73138,3.84208 -5.33786,8.5803 -6.03518,17.80034 -0.75708,10.01043 1.35942,16.3096 7.56505,22.51523 6.64643,6.64643 13.89562,8.45168 23.86164,5.94221 z m 594.32528,8.85523 -4.4531,-0.35113 0,-35.10488 0,-35.10489 4.6875,0 4.6875,0 0,35.625 c 0,19.59375 -0.1055,35.54896 -0.2344,35.45602 -0.1289,-0.0929 -2.2383,-0.32699 -4.6875,-0.52012 z m 180.0128,-0.0649 -4.4404,-0.28522 -0.2471,-30.65228 -0.2471,-30.65192 -11.4844,-0.26323 -11.4844,-0.26323 0,-4.1899 0,-4.18989 28.125,0 28.125,0 0,4.21875 0,4.21875 -11.7063,0 -11.7063,0 -0.2468,31.17187 -0.2468,31.17188 -4.4404,-0.28523 z m 357.8779,-0.49629 c -11.5696,-3.80882 -18.0249,-10.33651 -22.0994,-22.34746 -2.6177,-7.71673 -2.1658,-19.98489 1.0471,-28.42626 3.0858,-8.10719 10.5996,-15.40708 18.6562,-18.12503 14.0389,-4.73617 29.0101,-1.06138 37.8765,9.29712 9.1684,10.71117 10.6981,30.77371 3.4224,44.88653 -4.7014,9.11954 -15.4365,15.21098 -27.6103,15.66705 -4.4912,0.16825 -9.0596,-0.21687 -11.2925,-0.95195 z m 20.6889,-9.79102 c 5.1236,-2.61635 10.3461,-8.58051 11.834,-13.51461 2.0383,-6.75949 1.56,-19.16638 -0.9509,-24.6625 -4.0669,-8.90272 -10.6222,-13.52019 -20.2965,-14.29675 -9.4645,-0.75972 -18.5548,4.22187 -22.5299,12.34663 -3.2876,6.71959 -4.1211,17.78508 -1.9121,25.38379 1.8729,6.44239 7.9173,13.21371 14.1039,15.8 5.0024,2.09119 14.5918,1.57823 19.7515,-1.05656 z m 770.9705,9.82086 c -15.2718,-4.33006 -23.8771,-15.37922 -25.0244,-32.13119 -1.4909,-21.76723 11.4186,-37.47131 31.7715,-38.64953 17.2899,-1.00089 27.9229,5.33482 32.1306,19.14505 0.495,1.62462 0.1305,2.091 -1.9971,2.55555 -1.4314,0.31255 -3.5518,0.83856 -4.7119,1.16892 -1.597,0.45475 -2.1094,0.21277 -2.1094,-0.99604 0,-0.8782 -1.3151,-3.42799 -2.9225,-5.66621 -4.2444,-5.91027 -10.3551,-8.35666 -19.2022,-7.68756 -10.6962,0.80895 -16.9148,4.99576 -21.1844,14.26304 -2.9491,6.40095 -3.0025,20.35603 -0.1023,26.71875 5.8702,12.87861 23.0386,17.5708 38.2481,10.45342 l 6.1878,-2.89561 -0.2779,-6.35703 -0.2778,-6.35703 -10.0782,-0.26609 -10.0781,-0.26609 0,-4.14228 0,-4.14227 15.0013,-0.27913 15.0013,-0.27914 0,13.34762 0,13.34761 -3.9843,2.53921 c -7.761,4.94604 -14.6309,7.11155 -23.6719,7.46198 -5.0846,0.19707 -10.1376,-0.155 -12.7156,-0.88595 z M 6.584752,692.59421 c 0.01223,-0.64453 1.081291,-3.70312 2.375673,-6.79687 1.294383,-3.09375 5.09226,-12.58594 8.43973,-21.09375 3.34747,-8.50781 7.08281,-17.78906 8.30074,-20.625 1.21795,-2.83594 3.58067,-8.63672 5.25049,-12.89063 l 3.03605,-7.73437 4.90274,0 4.90274,0 14.10194,35.20019 14.10193,35.20019 -5.1458,-0.27831 -5.14581,-0.27832 -3.90617,-10.3125 -3.90617,-10.3125 -14.99329,-0.23821 -14.99329,-0.23821 -3.51666,9.61321 c -1.93415,5.28727 -3.516186,10.14055 -3.515622,10.78508 6.98e-4,0.79559 -1.654676,1.17188 -5.155223,1.17188 -3.511867,0 -5.149154,-0.37373 -5.133998,-1.17188 z m 41.156573,-36.5625 c -1.5752,-4.2539 -4.15752,-11.25795 -5.73849,-15.56456 l -2.8745,-7.83019 -2.73678,6.89269 c -1.50523,3.79098 -4.17371,10.79503 -5.92993,15.56456 l -3.19316,8.67188 11.66842,0 11.66841,0 -2.86397,-7.73438 z m 168.821175,2.57813 0,-35.15625 4.6875,0 4.6875,0 0,35.15625 0,35.15625 -4.6875,0 -4.6875,0 0,-35.15625 z m 789.375,0 0,-35.15625 5.1034,0 5.1034,0 12.1127,18.04687 c 6.662,9.92579 14.8069,21.9893 18.0998,26.80782 l 5.987,8.76093 0.2487,-26.80781 0.2488,-26.80781 4.673,0 4.6732,0 0,35.15625 0,35.15625 -5.0939,0 -5.0939,0 -10.5963,-15.70313 c -5.828,-8.63671 -13.9772,-20.727 -18.1092,-26.86731 l -7.5129,-11.1642 -0.2488,26.86732 -0.2488,26.86732 -4.673,0 -4.6732,0 0,-35.15625 z m 207.1875,0.002 0,-35.32435 18.9844,0.34746 c 21.2928,0.38969 23.6805,0.95568 30.081,7.1306 7.2695,7.01329 10.6372,17.85239 9.7559,31.39974 -0.9216,14.16581 -6.9072,24.43144 -16.8328,28.86872 -4.5591,2.03815 -6.4443,2.24369 -23.4729,2.55917 l -18.5156,0.34303 0,-35.32436 z m 33.5056,25.8667 c 11.0152,-2.13123 17.0344,-13.12052 15.9391,-29.10035 -0.6035,-8.8046 -2.9103,-14.44512 -7.5867,-18.55112 -4.5984,-4.03778 -6.5491,-4.4671 -20.2955,-4.4671 l -11.7187,0 -0.249,26.48437 -0.249,26.48438 10.0927,-0.0408 c 5.551,-0.0225 11.8812,-0.38686 14.0671,-0.80979 z m 533.6819,-25.86857 0,-35.15625 4.6875,0 4.6875,0 0,35.15625 0,35.15625 -4.6875,0 -4.6875,0 0,-35.15625 z m 375,-0.0468 0,-35.20304 5.2851,0.28116 5.285,0.28116 17.9181,26.63829 17.9181,26.63829 0.2487,-26.87266 0.2488,-26.87267 4.673,0 4.6732,0 0,35.15625 0,35.15625 -5.125,0 -5.125,0 -14.2773,-21.32813 c -7.8525,-11.73046 -15.9877,-23.85937 -18.0781,-26.95312 l -3.8009,-5.625 -0.2487,26.95312 -0.2488,26.95313 -4.673,0 -4.6732,0 0,-35.20303 z m 208.125,0.0468 0,-35.15625 4.6875,0 4.6875,0 0,35.15625 0,35.15625 -4.6875,0 -4.6875,0 0,-35.15625 z m 162.1875,0 0,-35.15625 5.1082,0 5.108,0 4.9015,7.26562 c 2.6958,3.9961 10.8386,16.125 18.095,26.95313 l 13.1936,19.6875 0.2487,-26.95313 0.2488,-26.95312 4.673,0 4.6732,0 0,35.15625 0,35.15625 -5.0653,0 -5.0654,0 -6.8667,-10.07813 c -3.7768,-5.54296 -11.9388,-17.66379 -18.1379,-26.93515 l -11.2709,-16.85704 -0.2488,26.93517 -0.2488,26.93515 -4.673,0 -4.6732,0 0,-35.15625 z M 0,289.69555 0,0 308.90625,0.0244 C 556.43496,0.044 617.8125,0.28314 617.8125,1.22815 c 0,0.64863 -4.08701,4.96548 -9.08225,9.593 -13.77953,12.76517 -20.7538,19.28163 -25.0586,23.41368 -2.14873,2.0625 -6.42028,6.0294 -9.49234,8.81533 -3.07206,2.785933 -9.38244,8.710103 -14.02306,13.164833 -4.64063,4.45473 -14.11073,13.35502 -21.04466,19.77842 -6.93395,6.4234 -14.36076,13.36642 -16.50403,15.42892 -2.14328,2.0625 -8.24736,7.75781 -13.56464,12.656247 -5.31727,4.89843 -13.2889,12.32678 -17.71472,16.50743 -4.42582,4.18066 -9.31258,8.755 -10.85945,10.16522 -1.54688,1.41022 -7.8306,7.27093 -13.96384,13.02381 -6.13324,5.75288 -12.2902,11.51447 -13.68213,12.80354 -5.01833,4.64748 -26.5828,24.92703 -30.40544,28.59375 -2.15021,2.0625 -8.92514,8.39062 -15.0554,14.0625 -6.13027,5.67187 -12.47375,11.57812 -14.09661,13.125 -6.70385,6.38993 -19.27472,18.16865 -24.90411,23.33475 -3.30961,3.03722 -9.39546,8.73254 -13.52409,12.65625 -4.12865,3.9237 -10.45678,9.8527 -14.0625,13.17555 -3.60575,3.32285 -10.15965,9.44004 -14.56426,13.59375 -4.40461,4.15371 -13.23478,12.40376 -19.62259,18.33345 -6.38782,5.92968 -13.36996,12.46875 -15.51587,14.53125 -2.14592,2.0625 -8.67514,8.17968 -14.50941,13.59375 -5.83428,5.41406 -12.36463,11.53125 -14.51192,13.59375 -2.14728,2.0625 -8.27316,7.75781 -13.61308,12.65625 -5.33993,4.89843 -11.47851,10.59375 -13.64131,12.65625 -5.42935,5.17754 -14.7195,13.92147 -28.88588,27.1875 -6.60745,6.1875 -13.36231,12.51562 -15.01082,14.0625 -1.64851,1.54687 -8.65499,8.08593 -15.56993,14.53125 -6.91496,6.44531 -15.12655,14.11587 -18.24798,17.04569 -12.34608,11.5882 -15.53364,14.57026 -21.27285,19.90144 -3.28075,3.04749 -9.57826,8.95374 -13.9945,13.125 -4.41623,4.17127 -10.74436,10.06414 -14.0625,13.09529 -3.31814,3.03115 -10.055335,9.35927 -14.971555,14.0625 -4.91622,4.70323 -13.73232,12.98101 -19.59135,18.39508 -5.85901,5.41406 -12.64058,11.74218 -15.07012,14.0625 -2.42954,2.32031 -9.208,8.64843 -15.06324,14.0625 -5.85523,5.41406 -14.45758,13.48851 -19.1163,17.94322 -4.65873,4.4547 -10.539399,9.93908 -13.068158,12.1875 -2.528758,2.24842 -5.842905,5.24818 -7.36477,6.66615 -1.521865,1.41797 -2.93335,2.57813 -3.136632,2.57813 C 0.166322,579.39108 0,449.02809 0,289.69554 Z m 545.86761,186.8475 c -2.59493,-0.50044 -4.93011,-3.68584 -4.93011,-6.72513 0,-2.18846 5.17718,-24.57782 7.93898,-34.33308 0.72988,-2.57813 2.64148,-10.38281 4.248,-17.34375 1.6065,-6.96094 3.31863,-13.92188 3.80473,-15.46875 0.48609,-1.54688 1.97573,-7.66406 3.31029,-13.59375 1.33457,-5.92969 3.00238,-12.89063 3.70627,-15.46875 0.70388,-2.57813 2.37428,-9.32813 3.71201,-15 1.33772,-5.67188 2.83393,-11.78906 3.32489,-13.59375 0.70776,-2.60166 5.86621,-23.71757 7.93597,-32.48568 0.22501,-0.95319 1.89365,-7.63932 3.70811,-14.85807 1.81444,-7.21875 3.48558,-13.96875 3.71359,-15 0.22803,-1.03125 1.26714,-5.25 2.30914,-9.375 7.80619,-30.90269 10.38471,-41.94359 9.95717,-42.63536 -0.27134,-0.43903 -0.16042,-0.93974 0.2465,-1.11269 0.40691,-0.17295 1.85657,-4.95508 3.22148,-10.62695 1.36491,-5.67188 3.12585,-12.84375 3.91322,-15.9375 1.86786,-7.3393 10.38069,-42.2938 13.32204,-54.7016 2.89937,-12.23073 4.15413,-14.61637 9.0688,-17.24233 l 3.96506,-2.11857 120.46875,0 c 128.51193,0 125.76458,-0.0882 145.3125,4.6676 26.0014,6.32592 54.98851,20.92634 71.38141,35.95388 2.9083,2.666 5.6504,4.85298 6.0938,4.85996 0.4433,0.007 2.4936,1.98714 4.5561,4.40035 2.0625,2.41321 5.5358,6.30984 7.7185,8.65919 2.1826,2.34934 3.9755,4.55779 3.9844,4.90768 0.01,0.34989 0.6749,1.29522 1.4804,2.10075 2.2833,2.28336 9.62119,16.0029 12.14419,22.70598 7.6877,20.42435 10.7109,67.33232 6.2512,96.99387 -1.0543,7.0121 -2.6156,15.02772 -3.4696,17.8125 -5.191,16.92804 -6.7267,21.09894 -11.31319,30.72819 -6.5968,13.84951 -15.7771,27.64223 -24.4187,36.68728 -3.7997,3.97712 -6.9085,7.71159 -6.9085,8.29882 0,0.58723 -0.3459,1.0677 -0.7687,1.0677 -0.42271,0 -2.2156,1.30736 -3.98431,2.90525 -10.1013,9.12601 -15.5141,13.42773 -24.7783,19.69232 -13.68439,9.25358 -27.76504,17.83033 -34.68745,21.12857 -3.09375,1.47406 -6.13041,3.15535 -6.74803,3.73619 -3.09534,2.91079 -32.45073,13.82226 -45.2026,16.80194 -18.02046,4.21077 -16.79251,4.18028 -162.96508,4.04556 -76.18698,-0.0702 -139.4673,-0.31001 -140.62291,-0.53287 z m 250.20659,-85.3918 c 15.57386,-6.27989 31.49578,-21.81158 44.89163,-43.79141 3.94969,-6.48062 12.59273,-24.04547 14.06997,-28.59375 0.41868,-1.28906 1.65297,-4.66406 2.74288,-7.5 10.82809,-28.17464 8.20084,-56.72824 -6.986,-75.92557 -4.89595,-6.18884 -12.7795,-13.05466 -17.84623,-15.54235 l -5.6027,-2.75083 -30.51949,-0.281 c -18.89474,-0.17396 -31.46348,0.0779 -32.99784,0.66129 -3.65913,1.39119 -4.99075,4.05768 -8.23941,16.49886 -1.61509,6.18522 -4.326,16.51929 -6.02424,22.9646 -1.69824,6.44531 -5.02108,19.10156 -7.38412,28.125 -2.36302,9.02344 -5.82291,22.10156 -7.68864,29.0625 -3.97865,14.84413 -5.10569,19.12465 -12.09524,45.9375 -2.88987,11.08594 -5.91535,22.17496 -6.72331,24.64227 -1.34776,4.11579 -1.34135,4.68085 0.0778,6.84673 l 1.54679,2.36072 36.74259,-0.29014 c 35.71054,-0.28198 36.89127,-0.35008 42.03555,-2.42442 z m 461.6937,75.50546 c -0.7823,-3.73828 -2.9312,-14.60156 -4.7753,-24.14062 -3.8687,-20.01184 -4.4802,-21.88014 -7.6313,-23.31589 -3.3442,-1.52373 -119.3902,-1.34964 -124.4798,0.18673 -3.3084,0.99868 -4.2927,2.15416 -10.5206,12.34983 -3.7788,6.18644 -8.0885,13.35745 -9.5771,15.93558 -7.2966,12.6381 -12.6686,21.0949 -14.3897,22.65294 -1.7851,1.61603 -4.8346,1.73802 -49.5294,1.98115 l -47.6273,0.25908 -1.9624,-2.49489 c -2.8168,-3.58093 -2.57539,-9.23424 0.6603,-15.46929 4.2639,-8.21585 19.6666,-35.92893 21.8276,-39.27274 0.4998,-0.77344 1.7738,-3.09375 2.831,-5.15625 1.0573,-2.0625 2.4178,-4.59633 3.0236,-5.63072 0.9699,-1.65643 2.7431,-4.80362 10.297,-18.27553 1.0118,-1.80469 3.7443,-6.86719 6.0721,-11.25 2.3277,-4.38281 4.8018,-8.63478 5.4978,-9.44882 0.6961,-0.81404 1.2656,-1.75031 1.2656,-2.08061 0,-0.3303 2.0295,-4.09396 4.5101,-8.36368 2.4806,-4.26972 6.5997,-11.56002 9.1537,-16.20064 2.554,-4.64063 5.3569,-9.70313 6.2287,-11.25 0.8718,-1.54688 3.0879,-5.55469 4.9246,-8.90625 7.716,-14.07956 14.3028,-25.90376 25.3287,-45.46875 3.4871,-6.1875 8.0383,-14.41406 10.1139,-18.28125 2.0756,-3.86719 5.1866,-9.47963 6.9133,-12.47211 1.7267,-2.99246 3.1395,-5.59432 3.1395,-5.78191 0,-0.18758 1.8984,-3.55213 4.2187,-7.47676 2.3204,-3.92465 4.2188,-7.32817 4.2188,-7.56339 0,-0.23521 1.1944,-2.4379 2.6542,-4.89487 5.7795,-9.72752 16.0958,-28.13896 16.0958,-28.72608 0,-0.34218 1.1341,-2.40672 2.5202,-4.58788 1.3861,-2.18116 3.9158,-6.63032 5.6217,-9.88703 1.7059,-3.2567 4.2632,-7.89723 5.6829,-10.31227 3.6881,-6.27341 6.198,-10.79286 11.0296,-19.8602 2.3354,-4.38281 5.2897,-9.14932 6.565,-10.59222 4.9036,-5.54807 1.4913,-5.34528 89.9433,-5.34528 88.7604,0 87.6794,-0.0626 92.4324,5.35079 3.2626,3.71597 3.9045,5.93924 7.5225,26.05546 1.5765,8.76563 3.6581,19.73438 4.6258,24.375 0.9677,4.64063 2.4034,11.8125 3.1904,15.9375 7.0005,36.69218 11.216,58.88014 11.9337,62.8125 2.2043,12.07678 6.41,34.11858 14.3103,75 1.7936,9.28125 3.4531,17.92969 3.6877,19.21875 1.2969,7.12654 5.5188,29.19578 6.2772,32.8125 1.1391,5.43302 7.1482,37.46135 8.9705,47.8125 0.7715,4.38281 2.0151,10.38817 2.7635,13.34522 2.5586,10.10925 1.2433,18.41078 -3.4363,21.68851 -1.9732,1.38213 -9.3058,1.52877 -76.4413,1.52877 l -74.2587,0 -1.4225,-6.79688 z m -25.2698,-141.86103 c 0.3104,-0.80873 -0.098,-4.50013 -0.9072,-8.20313 -0.8092,-3.70299 -2.3697,-11.79521 -3.4677,-17.98271 -3.7617,-21.19795 -8.9441,-49.28994 -9.9261,-53.80667 l -0.488,-2.24418 -1.5875,2.24418 c -0.8732,1.23429 -2.4694,3.93167 -3.5472,5.99417 -2.1172,4.0515 -19.0891,34.59065 -24.7478,44.53125 -12.8733,22.61423 -15.0896,26.69292 -15.5922,28.69535 l -0.5626,2.24215 30.131,0 c 26.5027,0 30.1989,-0.17707 30.6953,-1.47041 z m 222.2315,146.77148 c -3.2838,-2.58307 -3.9241,-6.41734 -2.1123,-12.64969 0.8302,-2.85578 1.8664,-6.97608 2.3026,-9.15623 0.4364,-2.18015 1.866,-7.97171 3.1771,-12.87015 6.5977,-24.64884 16.9938,-64.14408 18.6313,-70.78125 1.0178,-4.125 2.0225,-8.13281 2.2327,-8.90625 0.6128,-2.25408 2.6725,-10.23021 8.8239,-34.16792 3.1728,-12.34704 5.9209,-22.69521 6.1067,-22.99593 0.1859,-0.30071 1.6459,-5.80796 3.2444,-12.23833 1.5987,-6.43037 3.5241,-14.01188 4.2788,-16.84782 0.7547,-2.83594 2.6483,-10.00781 4.2081,-15.9375 1.5599,-5.92969 4.9679,-18.79688 7.5735,-28.59375 2.6057,-9.79688 7.2293,-27.51563 10.2748,-39.375 3.0454,-11.85938 6.2029,-23.88281 7.0165,-26.71875 0.8136,-2.83594 1.869,-6.95615 2.3453,-9.15602 0.4764,-2.19987 1.959,-7.68425 3.2949,-12.1875 1.9613,-6.612 3.0788,-8.77411 5.8067,-11.23461 l 3.3778,-3.04687 69.6727,0 69.6728,0 2.9918,2.67314 c 2.601,2.32403 3.045,3.40937 3.3995,8.31037 0.2691,3.71976 -0.1501,7.51404 -1.2324,11.15498 -0.902,3.03477 -2.1652,7.83807 -2.8069,10.67401 -1.1485,5.07537 -3.2281,12.98351 -11.2173,42.65625 -2.2213,8.25 -6.47,24.28125 -9.4415,35.625 -2.9716,11.34375 -5.9767,22.73437 -6.6781,25.3125 -0.7014,2.57812 -3.5929,13.68365 -6.4257,24.67894 -2.8326,10.99529 -6.0202,23.22966 -7.0835,27.1875 -1.0632,3.95783 -3.1577,11.83668 -4.6546,17.50856 -18.3071,69.36814 -23.6156,89.58801 -28.0585,106.875 -6.1176,23.80319 -8.795,32.90531 -10.1343,34.45312 -1.3291,1.53608 -6.0322,1.64063 -73.804,1.64063 -71.1111,0 -72.4267,-0.0332 -74.7828,-1.88643 z m 226.1358,-1.79146 c -3.3531,-3.35305 -3.4931,-6.26587 -0.7423,-15.43979 1.0988,-3.66496 3.3824,-12.35888 5.0744,-19.31982 2.9633,-12.19078 8.7884,-35.02923 14.4909,-56.8141 1.4985,-5.72432 2.9312,-11.41963 3.1838,-12.65625 0.6185,-3.02766 15.6659,-62.52943 19.204,-75.93766 6.9735,-26.42762 9.783,-37.29752 10.8795,-42.09199 0.6486,-2.83594 4.0079,-16.125 7.4652,-29.53125 3.4574,-13.40625 10.0524,-39.35156 14.6557,-57.65625 5.7339,-22.80047 8.8675,-33.65029 9.9507,-34.45313 1.2331,-0.91399 17.2724,-1.16535 72.8862,-1.14225 l 71.3053,0.0296 2.5569,2.25094 c 4.8493,4.26898 4.6055,7.51683 -2.6884,35.79951 -1.2168,4.71815 -2.2123,9.88612 -2.2123,11.48438 0,1.59826 -0.3349,2.90592 -0.7441,2.90592 -0.4093,0 -1.2952,2.63672 -1.9688,5.85937 -0.6736,3.22266 -2.6591,11.70297 -4.4122,18.84513 -3.9982,16.28913 -3.9986,16.30577 -0.3531,13.99756 1.5589,-0.98702 4.4066,-3.25105 6.3282,-5.03119 1.9216,-1.78014 5.8076,-5.1273 8.6357,-7.43812 8.3723,-6.84124 9.4935,-7.7746 14.0548,-11.7015 2.3957,-2.0625 9.131,-7.75781 14.9674,-12.65625 5.8363,-4.89844 11.0839,-9.33285 11.6612,-9.85424 0.5773,-0.5214 3.578,-3.05265 6.6683,-5.625 3.0902,-2.57236 6.0863,-5.09889 6.6581,-5.61451 2.4363,-2.19718 10.2053,-8.54731 12.0112,-9.81746 1.0791,-0.75898 3.5775,-2.97383 5.5519,-4.92188 1.9745,-1.94805 3.8053,-3.54191 4.0686,-3.54191 0.2632,0 1.601,-1.02027 2.9726,-2.26727 1.3717,-1.247 4.9854,-4.41106 8.0304,-7.03125 l 5.5365,-4.76398 71.8331,0 c 79.3137,0 76.0002,-0.24959 76.0002,5.72471 0,4.44609 -2.1771,7.57057 -10.0208,14.38181 -4.0276,3.49749 -8.3776,7.27756 -9.6667,8.40015 -7.4704,6.50563 -27.4033,24.5191 -31.3773,28.35572 -0.6159,0.59464 -3.6166,3.16188 -6.6681,5.705 -3.0516,2.54312 -8.5135,7.33004 -12.1375,10.63761 -3.624,3.30756 -9.0946,8.12312 -12.1568,10.70125 -3.0623,2.57812 -8.3304,7.21875 -11.707,10.3125 -3.3765,3.09375 -9.6709,8.78906 -13.9877,12.65625 -4.3169,3.86719 -8.318,7.45755 -8.8916,7.97859 -0.5734,0.52104 -6.3162,5.5744 -12.7615,11.22969 -6.4453,5.65529 -11.9297,10.54765 -12.1875,10.87191 -0.2578,0.32427 -3.6431,3.28653 -7.523,6.58282 -6.3452,5.39092 -9.7008,8.36544 -16.3577,14.50014 -4.3136,3.97525 -5.4737,6.65045 -4.3198,9.96082 1.1009,3.158 8.0783,14.58905 9.9004,16.21978 0.5761,0.51562 3.1364,4.23666 5.6894,8.26896 4.0653,6.42067 5.8422,8.95654 11.0095,15.71139 0.6228,0.81418 1.5543,2.14369 2.0699,2.95444 0.5157,0.81075 3.7196,5.41803 7.1199,10.2384 3.4002,4.82037 9.5023,13.61587 13.5601,19.54556 4.0577,5.92969 7.7194,11.20312 8.137,11.71875 0.8311,1.02612 6.0427,8.5199 13.0399,18.75 4.9889,7.29386 9.7894,14.11975 12.2908,17.47649 0.9062,1.21605 5.0134,7.06257 9.127,12.99226 4.1138,5.92969 7.8225,11.20312 8.2418,11.71875 1.9686,2.42126 8.5449,12.53002 10.0275,15.41398 4.014,7.808 3.4878,12.27719 -1.6569,14.0706 -1.8858,0.65744 -29.3456,0.98417 -82.7131,0.98417 -79.2441,0 -79.9096,-0.0157 -82.3449,-1.93112 -1.3502,-1.06211 -6.5598,-7.91758 -11.5767,-15.23437 -5.0169,-7.3168 -9.447,-13.72513 -9.8448,-14.24076 -0.3977,-0.51563 -1.7004,-2.20313 -2.895,-3.75 -1.8707,-2.42247 -7.5258,-10.63414 -10.5126,-15.26513 -0.5156,-0.79949 -3.4687,-4.92264 -6.5625,-9.16257 -8.9328,-12.24233 -25.2754,-35.4359 -25.6975,-36.47026 -0.2118,-0.51896 -0.9112,-1.46976 -1.5544,-2.11291 -0.9341,-0.93413 -1.7641,0.75973 -4.1259,8.42076 -5.3467,17.3427 -15.0699,49.99395 -18.3503,61.62136 -6.6128,23.43899 -8.4768,28.57377 -10.8003,29.75181 -1.7515,0.88802 -18.6412,1.16127 -72.4343,1.17187 l -70.1502,0.0138 -2.7404,-2.74039 z m 465.5152,-2.3563 c -3.0625,-3.06248 -3.0519,-8.36181 0.041,-20.50256 7.6135,-29.8868 14.9769,-58.50682 18.74,-72.83825 2.3692,-9.02344 5.2844,-20.44641 6.478,-25.38438 1.1936,-4.93797 2.6279,-10.42234 3.1873,-12.1875 0.5593,-1.76515 3.7569,-13.96718 7.1056,-27.11562 3.3488,-13.14844 7.4155,-28.96875 9.0371,-35.15625 1.6215,-6.1875 4.1429,-15.89063 5.6029,-21.5625 1.46,-5.67188 3.7146,-14.32031 5.0101,-19.21875 3.2834,-12.41441 14.4558,-56.0983 16.6641,-65.15625 1.0055,-4.125 2.4259,-9.39844 3.1563,-11.71875 0.7303,-2.32031 1.9399,-6.75 2.6881,-9.84375 3.0297,-12.52893 4.535,-16.9452 6.7783,-19.8863 4.7696,-6.25326 0.8565,-5.95751 75.1349,-5.67872 l 67.2768,0.25252 3.4167,2.61397 c 7.3063,5.58964 7.7355,13.15434 1.9743,34.79816 -2.1832,8.20167 -4.386,16.2173 -4.8951,17.8125 -0.5092,1.5952 -4.5019,16.82224 -8.8727,33.83787 -8.7191,33.94384 -13.5656,52.71382 -16.9446,65.625 -1.2144,4.64062 -5.8801,22.57031 -10.368,39.84375 -4.4879,17.27344 -9.9852,38.36719 -12.2162,46.875 -2.2311,8.50781 -7.2104,27.70312 -11.065,42.65625 -3.8546,14.95313 -7.6914,29.71875 -8.5262,32.8125 -0.8346,3.09375 -2.3094,8.57812 -3.2771,12.1875 -2.7926,10.4163 -4.663,15.14925 -6.7238,17.0146 -1.826,1.65272 -5.3755,1.74737 -74.5011,1.98673 l -72.5839,0.25132 -2.318,-2.31809 z m 226.8391,-0.76269 c -4.7142,-4.33232 -5.2073,-10.17767 -1.8785,-22.26562 3.4704,-12.6025 9.1512,-34.18328 20.236,-76.875 4.5232,-17.42061 8.9009,-34.06591 11.7116,-44.53125 0.8309,-3.09375 4.2139,-16.17188 7.5177,-29.0625 3.3036,-12.89063 6.6494,-25.75781 7.4348,-28.59375 1.8544,-6.695 10.1233,-38.31606 14.0966,-53.90625 6.7106,-26.33019 12.9343,-50.0553 15.1081,-57.59319 2.7095,-9.39493 5.1114,-19.52805 4.8538,-20.47755 -0.6548,-2.41482 2.6249,-8.03395 5.8935,-10.09738 l 3.6445,-2.30063 77.3924,0 c 64.0542,0 77.9315,0.22522 80.5201,1.30677 3.3285,1.39073 6.8219,5.51032 9.227,10.88073 0.8083,1.80469 13.3695,39.14062 27.914,82.96875 28.8159,86.83319 31.0277,93.28125 31.9981,93.28125 0.8536,0 1.9046,-3.37462 5.9858,-19.21875 1.8594,-7.21875 4.4501,-16.92188 5.757,-21.5625 1.9942,-7.08065 7.1418,-26.49383 8.3279,-31.40625 0.1867,-0.77344 1.7881,-6.67969 3.5584,-13.125 6.6034,-24.03934 7.3692,-26.8882 9.1981,-34.21875 2.1536,-8.63148 13.1384,-49.05055 15.4147,-56.71875 1.063,-3.58122 2.6539,-6.23014 5.2079,-8.67188 l 3.6772,-3.51562 44.4478,0 c 31.241,0 45.1437,0.31716 46.7903,1.0674 6.3153,2.87744 6.9806,15.09995 1.8814,34.5576 -1.8243,6.96094 -3.9187,15.39844 -4.6542,18.75 -0.7354,3.35156 -2.1483,8.83594 -3.1398,12.1875 -0.9915,3.35156 -2.9319,10.94531 -4.3119,16.875 -1.3801,5.92969 -3.0766,12.67969 -3.7699,15 -0.6935,2.32031 -1.9703,7.38281 -2.8374,11.25 -0.8671,3.86719 -2.1824,9.35156 -2.9229,12.1875 -2.435,9.32516 -21.6665,85.4128 -26.0653,103.125 -2.3691,9.53906 -5.5324,21.98437 -7.0296,27.65625 -1.4973,5.67187 -6.587,25.71094 -11.3105,44.53125 -4.7236,18.82031 -9.2272,36.75878 -10.0082,39.86327 -0.7811,3.10448 -2.4222,6.90136 -3.6469,8.4375 l -2.2269,2.79298 -78.9968,0.2721 c -43.4483,0.14964 -80.3124,0.0354 -81.9204,-0.25372 -2.7955,-0.50279 -7.8577,-4.01327 -7.8577,-5.44907 0,-0.37592 -0.8125,-2.47186 -1.8057,-4.65765 -0.9931,-2.18578 -3.5083,-9.2476 -5.5893,-15.69291 -2.0811,-6.44531 -8.4964,-25.64062 -14.2564,-42.65625 -5.7599,-17.01562 -11.3103,-33.46875 -12.334,-36.5625 -1.0237,-3.09375 -3.9475,-11.74219 -6.4974,-19.21875 -2.5499,-7.47656 -5.8959,-17.60156 -7.4355,-22.5 -1.5396,-4.89844 -3.2511,-9.96094 -3.8032,-11.25 -0.5522,-1.28906 -2.6046,-7.27364 -4.5608,-13.29906 -1.9564,-6.02541 -3.9867,-11.72072 -4.5119,-12.65625 -1.1624,-2.07081 -1.1611,-2.07338 -4.2766,9.54906 -1.244,4.64063 -4.0335,14.76563 -6.199,22.5 -2.1654,7.73438 -4.2866,15.75 -4.7137,17.8125 -0.4272,2.0625 -1.6198,6.49219 -2.6504,9.84375 -1.0306,3.35156 -2.9271,10.10156 -4.2144,15 -1.2873,4.89844 -3.4571,12.91406 -4.8218,17.8125 -1.3648,4.89844 -3.4702,12.70313 -4.6786,17.34375 -1.2085,4.64063 -3.046,11.39063 -4.0834,15 -1.0373,3.60938 -3.4207,12.25781 -5.2961,19.21875 -3.2046,11.89384 -5.0457,18.58824 -8.0838,29.39304 -0.7374,2.62274 -2.5891,5.89813 -4.3724,7.73438 l -3.0934,3.18508 -47.3123,0 -47.3125,0 -3.3152,-3.04687 z"
     id="path3338"
     inkscape:connector-curvature="0"
     inkscape:export-xdpi="90"
     inkscape:export-ydpi="90" />
</svg>
