<?xml version="1.0" encoding="UTF-8" standalone="no"?>
<!-- Created with Inkscape (http://www.inkscape.org/) -->

<svg
   xmlns:dc="http://purl.org/dc/elements/1.1/"
   xmlns:cc="http://creativecommons.org/ns#"
   xmlns:rdf="http://www.w3.org/1999/02/22-rdf-syntax-ns#"
   xmlns:svg="http://www.w3.org/2000/svg"
   xmlns="http://www.w3.org/2000/svg"
   xmlns:sodipodi="http://sodipodi.sourceforge.net/DTD/sodipodi-0.dtd"
   xmlns:inkscape="http://www.inkscape.org/namespaces/inkscape"
   id="svg3336"
   version="1.1"
   inkscape:version="0.91 r13725"
   width="371.02319"
   height="92.5"
   viewBox="0 0 371.02319 92.5"
   sodipodi:docname="logo_korf.svg">
  <metadata
     id="metadata3342">
    <rdf:RDF>
      <cc:Work
         rdf:about="">
        <dc:format>image/svg+xml</dc:format>
        <dc:type
           rdf:resource="http://purl.org/dc/dcmitype/StillImage" />
        <dc:title></dc:title>
      </cc:Work>
    </rdf:RDF>
  </metadata>
  <defs
     id="defs3340" />
  <sodipodi:namedview
     pagecolor="#ffffff"
     bordercolor="#666666"
     borderopacity="1"
     objecttolerance="10"
     gridtolerance="10"
     guidetolerance="10"
     inkscape:pageopacity="0"
     inkscape:pageshadow="2"
     inkscape:window-width="695"
     inkscape:window-height="413"
     id="namedview3338"
     showgrid="false"
     fit-margin-top="0"
     fit-margin-left="0"
     fit-margin-right="0"
     fit-margin-bottom="0"
     inkscape:zoom="2.8284271"
     inkscape:cx="138.67716"
     inkscape:cy="45.552097"
     inkscape:window-x="750"
     inkscape:window-y="282"
     inkscape:window-maximized="0"
     inkscape:current-layer="svg3336" />
  <path
     style="fill:#000000"
     d="m 370.55825,0 c -1.06164,0 -95.56261,23.143114 -107.74609,26.386719 l -4.82422,1.283203 2.94922,3.136719 c 2.80919,2.985707 2.98106,4.176864 3.57617,24.908203 0.71931,25.057719 0.30231,28.154764 -4.4707,33.136714 l -3.4961,3.64844 3.95703,0 c 5.82669,0 13.54023,-3.48865 16.12305,-7.29297 1.88786,-2.780703 2.36506,-6.823089 2.88672,-24.449216 l 0.625,-21.117187 35,-10.994141 c 19.25,-6.046867 39.18764,-12.318922 44.30664,-13.9375 l 9.30859,-2.943359 1.5,-5.882813 C 371.15417,2.352411 371.2757,0 370.55825,0 Z M 0.09146354,0.255859 c -0.301781,0.301781 0.1681411,3.01944 1.04296876,6.041016 l 1.5898437,5.494141 43.707032,13.818359 43.707031,13.816406 0.625,20.826172 c 0.697321,23.234825 1.520558,25.690005 10.087881,30.058595 4.64843,2.37029 12.41211,2.95789 12.41211,0.93945 0,-0.6875 -0.56998,-1.25 -1.26758,-1.25 -0.69761,0 -2.38377,-1.82812 -3.74609,-4.0625 -2.22801,-3.654203 -2.47842,-6.338308 -2.48242,-26.70117 -0.005,-21.972558 0.0871,-22.769822 3.0625,-27.154297 l 3.06445,-4.517578 -4.62695,-1.228515 C 83.298805,19.974564 0.51666664,-0.169344 0.09146354,0.255859 Z M 365.41177,17.460938 c -0.8378,-0.02122 -19.94532,5.701605 -42.46094,12.716796 -26.77454,8.34214 -40.9375,13.329228 -40.9375,14.414063 0,0.912274 0.39754,1.658203 0.88281,1.658203 0.48528,0 16.3759,-4.827244 35.3125,-10.726562 18.93661,-5.899319 37.35895,-11.618805 40.93946,-12.710938 5.92638,-1.807675 9.96442,-5.257852 6.26367,-5.351562 z M 5.7223229,17.882812 c -0.7664764,0.0089 -1.0326713,0.233811 -0.9550782,0.636719 0.2830793,1.469913 11.2882853,5.492428 40.3808603,14.761719 21.995098,7.007938 41.020834,12.793102 42.28125,12.855469 1.297157,0.06418 2.069113,-0.558284 1.777343,-1.433594 C 88.692686,43.161094 79.613878,40.065935 30.38248,24.644531 14.825845,19.77152 8.0217519,17.856127 5.7223229,17.882812 Z M 362.95864,25.333984 c -2.3087,0.114459 -8.02526,1.706266 -19.94336,5.392578 -55.44947,17.150737 -60.36854,18.855453 -60.80468,21.082032 -0.34929,1.783183 0.10762,2.002307 2.5,1.195312 1.61008,-0.543109 20.08077,-6.383366 41.04492,-12.978515 27.51972,-8.657481 38.22216,-12.547545 38.5,-13.990235 0.0964,-0.500543 -0.24747,-0.753198 -1.29688,-0.701172 z m -354.9160041,0.0059 c -0.64355,0.05041 -0.847769,0.300399 -0.767578,0.716797 0.29188,1.515611 10.8786301,5.379391 40.3789061,14.734375 21.991288,6.973769 40.40625,12.428663 40.921875,12.121093 2.713799,-1.618784 -0.702324,-3.298852 -17.5,-8.601562 C 60.935214,41.109342 42.343306,35.232164 29.759433,31.248047 15.846109,26.843019 9.9732849,25.188628 8.0426359,25.339844 Z m 0.328125,6.636718 c -1.8582584,1.858258 6.8755721,5.308881 40.5175781,16.007813 20.625,6.559223 38.203125,11.945908 39.0625,11.970703 1.911621,0.05515 2.05886,-2.001132 0.224609,-3.134766 C 85.670164,55.271963 8.9567459,31.390577 8.3707609,31.976562 Z M 360.93521,32.918009 c -3.15529,-0.05035 -16.90218,4.144499 -67.98438,20.191406 -6.8171,2.141514 -10.9375,4.085287 -10.9375,5.162109 0,0.950224 0.3301,1.728516 0.73438,1.728516 0.40429,0 10.6699,-3.142223 22.8125,-6.982422 12.14258,-3.840198 29.66755,-9.341116 38.94335,-12.224609 11.69546,-3.635676 16.9831,-5.859803 17.25196,-7.25586 0.0713,-0.370263 -0.0922,-0.607522 -0.82031,-0.61914 z M 11.62662,38.941446 c -0.100179,-0.009 -0.189784,-0.0089 -0.269531,0.002 -0.531645,0.0723 -0.619922,0.594292 -0.408203,1.666016 0.341896,1.730675 8.891376,4.910921 38.564453,14.349609 33.415778,10.6292 43.888524,13.025099 39.3125,8.994141 -0.653125,-0.575379 -17.5,-6.162401 -37.4375,-12.416066 C 31.450839,45.283481 14.09674,39.765496 12.823886,39.275428 12.32195,39.082174 11.927159,38.968335 11.62662,38.941446 Z m 349.00585,0.511719 c -0.54622,-0.546227 -75.36543,22.434098 -77.66211,23.853516 -0.52595,0.325057 -0.95703,1.120652 -0.95703,1.767578 0,0.646926 0.67906,1.175781 1.50977,1.175781 0.83071,0 17.84633,-5.12258 37.8125,-11.382812 32.75713,-10.270742 41.14946,-13.561476 39.29687,-15.414063 z M 170.63442,43.75004 c -17.64358,0 -28.28877,18.79068 -17.74414,31.322266 3.52989,4.195023 6.74916,6.176499 12.24805,7.542968 12.82842,3.187844 25.18471,-4.726553 26.57031,-17.019531 1.35977,-12.063846 -8.07706,-21.845703 -21.07422,-21.845703 z m -54.87109,1.25 0,18.8125 0,18.8125 7.1875,-0.375 7.1875,-0.375 0.625,-5.962891 0.625,-5.960937 3.50977,6.273437 3.50976,6.275391 8.05274,0 c 4.42909,0 8.05273,-0.383601 8.05273,-0.851562 0,-0.467962 -2.82967,-4.941873 -6.28711,-9.94336 l -6.28516,-9.09375 6.28321,-8.80664 6.2832,-8.804688 -7.97461,0 -7.97265,0 -3.88477,5.9375 -3.88281,5.9375 -0.0137,-5.9375 -0.0156,-5.9375 -7.5,0 z m 77.5,0 0,17.916016 c 0,9.854168 0.37564,18.291668 0.83398,18.75 0.45832,0.458334 3.83332,0.833984 7.5,0.833984 l 6.66602,0 0.0781,-5.3125 0.0762,-5.3125 2.6875,5.349609 2.68554,5.347657 15.04883,-0.347657 15.04883,-0.349609 0.38086,-5.9375 0.38086,-5.9375 4.93164,0 c 4.92021,0 4.93164,-0.01157 4.93164,-5 0,-5 0,-5 -5,-5 -4.16666,0 -5,-0.416666 -5,-2.5 0,-2.12963 0.83334,-2.5 5.625,-2.5 l 5.625,0 0,-5 0,-5 -13.08984,0 -13.0918,0 -0.3457,17.707031 -0.34766,17.707031 -3.87891,-6.242187 -3.87695,-6.244141 2.87891,-2.564453 c 3.96104,-3.528196 4.79242,-7.901932 2.52929,-13.318359 -2.49206,-5.964335 -5.69205,-7.044922 -20.85937,-7.044922 z M 14.724277,47.990234 c -0.9427,-0.04537 -1.277996,0.161259 -1.199219,0.570313 0.290003,1.505858 10.033306,5.114531 36.628906,13.564453 19.928782,6.331749 36.983725,11.537109 37.900391,11.568359 0.916668,0.03125 1.442736,-0.646484 1.167968,-1.505859 C 88.655101,70.413439 87.881636,70.140518 44.759433,56.507812 25.840413,50.526733 17.552376,48.126349 14.724277,47.990234 Z m 342.749993,0.119141 c -2.98703,-0.0962 -13.00061,2.679331 -32.96094,8.955078 -18.21875,5.728174 -35.23438,11.002977 -37.8125,11.722656 -2.68149,0.748532 -4.6875,2.091684 -4.6875,3.136719 0,1.004751 0.29847,1.826172 0.66211,1.826172 1.77145,0 73.85649,-22.928393 74.79101,-23.789062 1.27163,-1.171102 1.36556,-1.807836 0.008,-1.851563 z M 210.76333,55 c 1.83334,0 2.5,0.833334 2.5,3.125 0,2.291666 -0.66666,3.125 -2.5,3.125 -1.83334,0 -2.5,-0.833334 -2.5,-3.125 0,-2.291666 0.66666,-3.125 2.5,-3.125 z m -40.88672,0.59375 c 1.6943,-0.02743 3.52498,0.68123 5.24024,2.396484 3.79337,3.793368 4.01025,7.395989 0.64648,10.759766 -3.3171,3.317095 -8.12522,3.191189 -10.55469,-0.277344 -4.2603,-6.08243 -0.41492,-12.796626 4.66797,-12.878906 z"
     id="path3346"
     inkscape:connector-curvature="0"
     sodipodi:nodetypes="scccsccssscssccssccccsssssccccsssssssssssssssssssssscssssscccsssccsssssscsccsscsscssssssssssscccccccccsscccccccccccccscscccccccccsssssccccccccccsscssssssscsssscccssssssssss"
     inkscape:export-xdpi="90"
     inkscape:export-ydpi="90" />
</svg>
