<?xml version="1.0" encoding="UTF-8" standalone="no"?>
<svg
   xmlns:dc="http://purl.org/dc/elements/1.1/"
   xmlns:cc="http://creativecommons.org/ns#"
   xmlns:rdf="http://www.w3.org/1999/02/22-rdf-syntax-ns#"
   xmlns:svg="http://www.w3.org/2000/svg"
   xmlns="http://www.w3.org/2000/svg"
   viewBox="0 0 356.18823 352.24268"
   height="352.24268"
   width="356.18823"
   version="1.1"
   id="svg3334">
  <metadata
     id="metadata3340">
    <rdf:RDF>
      <cc:Work
         rdf:about="">
        <dc:format>image/svg+xml</dc:format>
        <dc:type
           rdf:resource="http://purl.org/dc/dcmitype/StillImage" />
        <dc:title></dc:title>
      </cc:Work>
    </rdf:RDF>
  </metadata>
  <defs
     id="defs3338" />
  <path
     id="path3344"
     d="m 40.563228,334.09012 0,-18.15259 23.78432,0 23.78432,0 -0.34682,17.8125 -0.34682,17.8125 -23.4375,0.34009 -23.4375,0.34007 0,-18.15257 z m 225.000002,-0.0276 0,-18.125 23.125,0 23.125,0 0,18.125 0,18.125 -23.125,0 -23.125,0 0,-18.125 z M 6.0045877,307.28729 c -8.5948001,-5.25761 -7.8024401,-18.19624 1.3485,-22.01975 3.7706303,-1.57547 27.3793103,-1.82936 169.7324923,-1.82533 163.05781,0.005 165.40946,0.0394 169.44631,2.50057 7.3776,4.49812 8.35718,14.16923 2.03664,20.10734 l -3.20641,3.01241 -167.71195,0.31552 C 14.017408,309.6859 9.8425477,309.63505 6.0045877,307.28729 Z M 26.219818,271.87503 c 1.40811,-4.2628 23.50946,-76.89653 40.12758,-131.875 l 3.11711,-10.3125 106.745612,0 106.74561,0 4.97831,15.9375 c 2.73808,8.76562 12.63828,41.14741 22.00043,71.95954 9.36216,30.81212 17.33128,56.82775 17.70917,57.8125 0.59398,1.5479 -19.89634,1.79046 -151.2458,1.79046 l -151.932872,0 1.75485,-5.3125 z M 240.56323,258.1992 c 0,-0.81858 -5.90625,-23.34353 -13.125,-50.05545 -7.21875,-26.71191 -13.125,-48.82341 -13.125,-49.13667 0,-0.31325 -17.0183,-0.56955 -37.81844,-0.56955 l -37.81844,0 -13.44842,49.6875 c -7.39663,27.32812 -13.44083,50.10937 -13.43156,50.625 0.009,0.51562 28.98561,0.9375 64.39186,0.9375 48.9556,0 64.375,-0.35649 64.375,-1.48833 z m 62.49651,-96.0262 c -0.82656,-3.44548 -1.13385,-7.2261 -0.68286,-8.40135 0.45099,-1.17523 9.28512,-15.82973 19.63141,-32.56555 10.34629,-16.73581 18.6131,-30.594073 18.37069,-30.796133 -0.24241,-0.20206 -13.37825,-5.292925 -29.19075,-11.313045 -15.8125,-6.02011 -30.92189,-11.8111 -33.57643,-12.86884 -4.66327,-1.85817 -4.80415,-2.08922 -4.1676,-6.835104 0.36236,-2.701558 0.90643,-5.159524 1.20905,-5.462148 0.94882,-0.948807 81.53498,30.541542 81.53498,31.861112 0,1.659489 -49.76418,82.565008 -50.81282,82.610398 -0.44706,0.0194 -1.4891,-2.78385 -2.31567,-6.22934 z M 253.68823,86.643632 c -5.5,-2.23926 -21.53125,-8.45184 -35.625,-13.80574 -14.09375,-5.35391 -26.02854,-10.09088 -26.52174,-10.52661 -0.4932,-0.43573 7.29996,-11.188701 17.31815,-23.895496 10.01819,-12.706793 18.91109,-24.086083 19.762,-25.287311 1.43548,-2.026422 3.01606,-1.625012 21.90068,5.561924 l 20.35355,7.745971 -0.73439,8.188076 c -0.40391,4.503443 -1.42956,19.016203 -2.27921,32.250576 -0.97457,15.17968 -2.03014,24.021425 -2.85944,23.951245 -0.72302,-0.0612 -5.8146,-1.943376 -11.3146,-4.182635 z m -2.17795,-72.963919 c -6.69786,-2.539454 -12.18224,-5.0659233 -12.1875,-5.6143753 -0.0204,-2.129707 6.74856,-7.10985503 10.66135,-7.84389803 5.37081,-1.0075701 10.33887,1.44443803 14.02696,6.92305803 2.87018,4.2636233 3.37493,10.1507863 0.92714,10.8138163 -0.6875,0.186222 -6.73008,-1.739148 -13.42795,-4.278601 z"
     style="fill:#000000" />
</svg>
