<?xml version="1.0" encoding="UTF-8" standalone="no"?>
<svg
   xmlns:dc="http://purl.org/dc/elements/1.1/"
   xmlns:cc="http://creativecommons.org/ns#"
   xmlns:rdf="http://www.w3.org/1999/02/22-rdf-syntax-ns#"
   xmlns:svg="http://www.w3.org/2000/svg"
   xmlns="http://www.w3.org/2000/svg"
   viewBox="0 0 343.30447 349.194"
   height="349.194"
   width="343.30447"
   version="1.1"
   id="svg3358">
  <metadata
     id="metadata3364">
    <rdf:RDF>
      <cc:Work
         rdf:about="">
        <dc:format>image/svg+xml</dc:format>
        <dc:type
           rdf:resource="http://purl.org/dc/dcmitype/StillImage" />
        <dc:title></dc:title>
      </cc:Work>
    </rdf:RDF>
  </metadata>
  <defs
     id="defs3362" />
  <path
     id="path3368"
     d="m 300.88347,344.06604 c -2.56561,-3.04714 -16.34686,-17.86553 -30.625,-32.92975 -14.27812,-15.06423 -33.82544,-35.79298 -43.43846,-46.0639 -28.70114,-30.6654 -37.29723,-39.343 -41.61993,-42.01456 -7.52385,-4.65 -18.83346,-7.26424 -31.52685,-7.2875 -14.64345,-0.0268 -21.30957,-2.76759 -30.80938,-12.66718 -6.97696,-7.27057 -18.22248,-23.45777 -21.12877,-30.41349 -3.464715,-8.29223 -1.828936,-14.41667 3.85056,-14.41667 1.46432,0 9.0862,4.22474 16.9375,9.3883 7.85131,5.16357 15.28199,9.70862 16.51264,10.10012 2.51444,0.7999 11.2391,-3.32157 15.70024,-7.41667 4.5696,-4.19466 11.49105,-18.65581 13.41115,-28.02021 1.35331,-6.60014 -5.28586,-13.08799 -27.45326,-26.82754 -7.50491,-4.6516 -9.52068,-6.52564 -9.52068,-8.85127 0,-5.3893 4.5646,-6.49773 26.75815,-6.49773 l 20.11685,0 9.11843,4.87172 c 9.51874,5.0856 17.06005,12.41402 21.06625,20.47155 1.83521,3.69109 2.26336,7.11917 2.06476,16.53173 -0.13945,6.60882 0.56225,15.82789 1.58231,20.7886 2.9331,14.26411 5.30395,17.90009 28.05083,43.01931 5.94154,6.5612 61.92049,66.67286 82.91855,89.0401 20.83534,22.19393 21.04259,22.47043 20.21939,26.97538 -2.52873,13.83832 -15.6054,25.13372 -31.27052,27.01093 -6.18743,0.74148 -6.2967,0.6935 -10.91476,-4.79127 z M 144.92323,326.17576 c -9.15281,-1.48428 -12.5,-6.46241 -12.5,-18.5907 0,-7.71998 -0.28938,-8.59836 -4.0625,-12.33106 -2.48487,-2.45826 -8.674,-5.85609 -15.9375,-8.74967 -15.932184,-6.34697 -20.01091,-5.94807 -29.333516,2.86887 -5.67972,5.37164 -7.52399,6.39979 -11.47982,6.39979 -4.39176,0 -5.8998,-1.18681 -22.12607,-17.41309 l -17.41308,-17.41309 0.68341,-5.09522 c 0.51801,-3.86204 2.2246,-6.78154 7.05124,-12.06265 8.00019,-8.75348 8.11292,-11.2803 1.23419,-27.66383 -6.66327,-15.87032 -9.93784,-19.07783 -19.57358,-19.17267 -9.24137,-0.091 -15.0303101,-2.17348 -18.3007001,-6.5835 -2.33802001,-3.15276 -2.66513001,-5.60645 -3.06773001,-23.01178 -0.28939,-12.51078 0.0705,-21.22206 1.00558001,-24.34322 2.08417,-6.95631 7.17359,-9.73035 17.8628501,-9.73628 11.39062,-0.006 14.16631,-2.6319 21.04336,-19.90525 6.65382,-16.712677 6.3885,-19.892707 -2.46831,-29.583467 -5.45209,-5.96546 -6.36783,-7.69217 -6.36783,-12.00716 0,-4.7905 0.82961,-5.88142 16.7745,-22.05836 15.91086,-16.1424 17.02817,-17.01861 21.7014,-17.01861 4.19571,0 5.98792,0.96971 12.07624,6.53409 6.3523,5.80565 7.76252,6.53409 12.649626,6.53409 3.603697,0 9.85311,-1.79786 18.12384,-5.21394 16.1963,-6.68962 18.23658,-9.13091 18.88278,-22.594223 0.40602,-8.4592237 0.88047,-10.0988657 3.75357,-12.9719747 2.85469,-2.854681 4.83154,-3.437657 14.97594,-4.41641303 12.85273,-1.24006302 30.97193,-0.391701 36.43356,1.70586103 4.62973,1.778062 7.12855,6.937552 7.12855,14.7187627 0,7.080015 2.18717,13.313847 5.7979,16.525147 3.29749,2.9327 26.85114,12.24678 30.96992,12.24678 4.63565,0 9.23423,-2.6424 15.04837,-8.64697 4.14573,-4.28152 5.73889,-5.10303 9.89635,-5.10303 4.68254,0 5.87499,0.91081 21.67408,16.55512 9.1954,9.10531 17.0374,17.82406 17.42666,19.375 1.1944,4.75889 -0.60569,8.81419 -7.09163,15.97619 -7.95752,8.78696 -8.04746,11.82488 -0.86627,29.260367 6.69996,16.26713 8.63096,17.91097 22.21212,18.90891 7.99123,0.58718 10.5139,1.28482 12.96189,3.58458 4.24521,3.98818 6.29801,16.96924 5.25253,33.21483 -1.03722,16.11687 -1.65543,18.6576 -5.46724,22.46942 -2.73944,2.73943 -4.2484,3.15558 -11.44214,3.15558 -13.37672,0 -15.84144,1.96239 -22.9199,18.24869 -3.25729,7.49447 -5.92916,15.55248 -5.9375,17.9067 l -0.0151,4.2804 -3.27362,-3.0304 c -1.80047,-1.66672 -9.98491,-10.46885 -18.18762,-19.56032 l -14.91403,-16.52993 2.82452,-9.09507 c 2.29592,-7.393 2.81168,-11.90222 2.75597,-24.09507 -0.0614,-13.42471 -0.47019,-16.14375 -3.89304,-25.89084 -5.0078,-14.26048 -11.18498,-24.21806 -21.29612,-34.3292 -21.50298,-21.502967 -51.24961,-30.867807 -78.62601,-24.753037 -34.4895,7.70354 -60.589856,33.032297 -68.571826,66.544647 -2.7963,11.74024 -1.92035,34.95865 1.711,45.35282 14.923273,42.71556 56.094876,67.67831 98.970756,60.00697 4.46875,-0.79955 9.89699,-2.07576 12.06275,-2.83604 3.84273,-1.34897 4.11382,-1.18885 11.23475,6.63618 4.01335,4.41017 11.47767,12.37595 16.58737,17.70172 5.1097,5.32578 9.05405,9.8568 8.76525,10.06895 -0.28882,0.21215 -4.46262,1.94767 -9.27512,3.8567 -20.37631,8.08294 -23.125,11.01068 -23.125,24.63128 0,14.91891 -4.55487,17.37107 -31.875,17.16019 -8.25,-0.0638 -16.40625,-0.34384 -18.125,-0.62257 z"
     style="fill:#000000" />
</svg>
