<?xml version="1.0" encoding="UTF-8" standalone="no"?>
<svg
   xmlns:dc="http://purl.org/dc/elements/1.1/"
   xmlns:cc="http://creativecommons.org/ns#"
   xmlns:rdf="http://www.w3.org/1999/02/22-rdf-syntax-ns#"
   xmlns:svg="http://www.w3.org/2000/svg"
   xmlns="http://www.w3.org/2000/svg"
   viewBox="0 0 623.78906 624.19757"
   height="624.19757"
   width="623.78906"
   version="1.1"
   id="svg3346">
  <metadata
     id="metadata3352">
    <rdf:RDF>
      <cc:Work
         rdf:about="">
        <dc:format>image/svg+xml</dc:format>
        <dc:type
           rdf:resource="http://purl.org/dc/dcmitype/StillImage" />
        <dc:title></dc:title>
      </cc:Work>
    </rdf:RDF>
  </metadata>
  <defs
     id="defs3350" />
  <path
     id="path3356"
     d="m 142.60573,623.05442 c -21.13511,-1.89574 -38.41245,-6.95307 -58.124998,-17.01399 -28.82219,-14.71034 -51.63277,-37.35988 -66.37371,-65.9051 -21.3902601,-41.42137 -23.8797401,-86.08631 -7.19799,-129.14258 10.07725,-26.00976 26.12497,-47.63801 48.82259,-65.80044 l 7.12588,-5.70206 10.37412,4.37836 c 22.118371,9.33499 50.871998,15.44203 72.705318,15.44203 14.54533,0 18.901,-1.60475 25.08119,-9.24058 3.06748,-3.78996 3.81537,-6.02117 4.23681,-12.6396 0.44224,-6.9452 0.0692,-8.79228 -2.74516,-13.59472 -5.24497,-8.94989 -9.95809,-11.0717 -27.1713,-12.23236 -31.88235,-2.14979 -55.141487,-9.91854 -81.107588,-27.09063 -12.25437,-8.10415 -30.61513,-25.88741 -39.00027,-37.7736 -44.23824,-62.70902 -37.4372401,-146.53028 16.29188,-200.794943 16.15839,-16.31943 38.14388,-30.16973 59.383548,-37.4100996 37.15709,-12.6664405 77.32418,-11.1266505 113.19803,4.3394196 22.04371,9.50356 49.02265,30.58826 61.62901,48.16457 l 4.37691,6.10247 -4.11619,9.75988 c -9.37959,22.239848 -14.21037,43.732053 -15.16395,67.464613 -0.71313,17.74798 0.0372,21.39495 5.73911,27.89109 6.5164,7.42423 20.51054,9.28529 29.63065,3.94055 8.62627,-5.05533 10.64517,-9.63567 11.94655,-27.10351 2.46215,-33.04853 11.27037,-58.816093 28.39632,-83.070613 50.26478,-71.1871601 149.96945,-87.450937 219.60219,-35.8214 30.65638,22.73031 52.28554,55.93432 60.08172,92.234463 12.60245,58.67874 -8.74068,118.18494 -55.93113,155.94004 l -7.06046,5.64877 -13.56454,-5.40845 c -23.85235,-9.51038 -47.17073,-14.28465 -69.83404,-14.29798 -14.34067,-0.009 -18.73104,1.62001 -24.8929,9.2332 -3.06748,3.78996 -3.81537,6.02117 -4.23681,12.6396 -0.44224,6.9452 -0.0693,8.79228 2.74516,13.59472 5.24498,8.94989 9.95809,11.0717 27.1713,12.23236 42.02444,2.83367 75.45799,17.6616 103.63981,45.96479 22.93988,23.03865 37.5429,50.99498 43.26208,82.82182 2.54976,14.18926 2.51455,40.09439 -0.0736,54.13113 -11.9351,64.73032 -61.54704,114.3465 -126.34557,126.35638 -16.44496,3.04793 -41.52671,2.75993 -58.04203,-0.66647 -36.41047,-7.554 -68.14808,-27.1313 -91.7013,-56.5658 l -5.70206,-7.12588 4.24909,-10.07499 c 9.58291,-22.7218 15.57136,-50.79805 15.57136,-73.00445 0,-14.54533 -1.60475,-18.901 -9.24058,-25.08119 -3.78996,-3.06748 -6.02117,-3.81538 -12.6396,-4.23681 -6.9452,-0.44224 -8.79228,-0.0693 -13.59472,2.74516 -8.88005,5.20406 -11.04348,9.95341 -12.25879,26.91167 -1.31969,18.4147 -2.8079,26.59532 -7.52547,41.36738 -16.17672,50.65376 -57.41764,89.58874 -109.21192,103.10545 -9.44275,2.46426 -36.71646,6.08317 -41.15392,5.46065 -0.6875,-0.0965 -5.75,-0.579 -11.25,-1.07233 z M 332.46888,393.09564 c 37.19504,-9.51289 63.26185,-43.00608 63.26185,-81.285 0,-46.2511 -37.4989,-83.75 -83.75,-83.75 -46.28836,0 -83.75,37.46164 -83.75,83.75 0,54.3852 51.72037,94.71679 104.23815,81.285 z"
     style="fill:#000000" />
</svg>
